<?xml version="1.0" encoding="UTF-8"?>
<svg version="1.1" xmlns="http://www.w3.org/2000/svg" width="512" height="512">
<path d="M0 0 C1.91461198 2.11392399 2.72685096 3.86865581 3.67662048 6.55776978 C4.02982864 7.53709473 4.3830368 8.51641968 4.74694824 9.52542114 C5.30490334 11.13350647 5.30490334 11.13350647 5.87413025 12.77407837 C6.47855202 14.46458313 6.47855202 14.46458313 7.09518433 16.1892395 C8.1986797 19.2811957 9.29094434 22.37685981 10.37906647 25.47425079 C11.53813828 28.76380318 12.71234517 32.04793265 13.88633728 35.33218384 C14.3673015 36.67803698 14.84825848 38.02389271 15.32920837 39.36975098 C15.56926605 40.04141171 15.80932373 40.71307243 16.05665588 41.40508652 C16.79362264 43.46897235 17.52889701 45.53345441 18.26377869 47.5980835 C22.65407177 59.92460752 27.17414761 72.20159743 31.7233429 84.47033691 C41.06387807 109.66793021 50.19268057 134.93864633 59.25450134 160.23745728 C59.49245926 160.90166089 59.73041718 161.56586451 59.97558594 162.2501955 C61.09057035 165.36261485 62.20477932 168.47530452 63.31755066 171.58851624 C64.97008679 176.20619403 66.62624029 180.81788683 68.38340759 185.3968811 C69.67519177 188.92635577 70.28631143 191.09471939 69.6280365 194.79751587 C65.3758687 200.41339259 59.7080471 201.97158032 53.213974 204.19595337 C52.08972015 204.59400177 50.96546631 204.99205017 49.80714417 205.40216064 C46.21035296 206.67243017 42.6070588 207.92292848 39.0030365 209.17251587 C36.6327728 210.00450564 34.26297586 210.83782644 31.8936615 211.67251587 C28.414604 212.8979549 24.93504842 214.12172951 21.4526825 215.33773804 C13.68006143 218.05435913 5.9439943 220.85596894 -1.74613953 223.79858398 C-4.76295811 224.93543792 -7.11871199 225.79751587 -10.3719635 225.79751587 C-10.0419635 228.76751587 -9.7119635 231.73751587 -9.3719635 234.79751587 C-8.6294635 234.88001587 -7.8869635 234.96251587 -7.1219635 235.04751587 C-3.69267248 235.98277706 -2.55218193 236.99908727 -0.3719635 239.79751587 C0.13140106 242.94910431 0.13140106 242.94910431 0.13597107 246.74343872 C0.14533101 247.79176306 0.14533101 247.79176306 0.15488005 248.86126566 C0.1708344 251.20298918 0.15819721 253.54367527 0.14561462 255.88540649 C0.15103469 257.56422025 0.15815671 259.24302925 0.16685486 260.92182922 C0.18510496 265.48175127 0.17801379 270.04131171 0.16533852 274.60124016 C0.15521956 279.37065489 0.16460112 284.14003842 0.17088318 288.90945435 C0.17816281 296.9192359 0.16856361 304.92886998 0.14952087 312.93862915 C0.12775152 322.20230442 0.13480266 331.46562757 0.1568265 340.7292943 C0.17497151 348.67929619 0.17754322 356.629192 0.16707182 364.5792079 C0.16083194 369.32898195 0.16001482 374.07859043 0.17321777 378.82835388 C0.18476261 383.29360775 0.17677574 387.75840712 0.15364075 392.22361183 C0.14834631 393.86351071 0.14987999 395.50344777 0.15869141 397.14333153 C0.1696022 399.37993708 0.15593972 401.61508095 0.13597107 403.85159302 C0.13370892 405.72978855 0.13370892 405.72978855 0.13140106 407.64592743 C-0.47954787 411.47110652 -1.38662613 412.41133491 -4.3719635 414.79751587 C-6.81341171 415.30006319 -6.81341171 415.30006319 -9.60066223 415.30367374 C-11.19733671 415.32024528 -11.19733671 415.32024528 -12.82626724 415.33715159 C-14.5789699 415.32479044 -14.5789699 415.32479044 -16.36708069 415.31217957 C-17.60907604 415.31912509 -18.8510714 415.32607062 -20.13070297 415.33322662 C-23.58032081 415.34837918 -27.02907899 415.34553515 -30.47865868 415.33507359 C-34.1978927 415.32809346 -37.91703772 415.34407039 -41.63624573 415.35707092 C-48.92296788 415.37873576 -56.20953402 415.37857778 -63.49627781 415.37044538 C-69.41721672 415.364151 -75.33811005 415.36527723 -81.25904846 415.37171745 C-82.10106143 415.37261911 -82.94307439 415.37352076 -83.8106029 415.37444974 C-85.52102186 415.3763009 -87.23144079 415.37816346 -88.94185972 415.3800373 C-104.98852544 415.39662425 -121.03510329 415.38788878 -137.08176374 415.37105172 C-151.77083224 415.35635211 -166.45969623 415.3709852 -181.14873838 415.39982188 C-196.22327211 415.42919551 -211.29771139 415.44019424 -226.37227249 415.43063968 C-228.07647449 415.42961711 -229.78067651 415.4286225 -231.48487854 415.42765617 C-232.32342526 415.42717978 -233.16197198 415.42670339 -234.02592921 415.42621257 C-239.94123705 415.42404584 -245.85645572 415.43386615 -251.77174377 415.4484272 C-258.97846203 415.46591942 -266.18491945 415.46587812 -273.39162731 415.44307555 C-277.0701945 415.43190506 -280.74830163 415.42883345 -284.42684937 415.44737625 C-288.41042434 415.46719866 -292.39327431 415.44845947 -296.37684631 415.42570496 C-297.54531475 415.43754068 -298.71378319 415.44937641 -299.91765976 415.4615708 C-300.98210941 415.44914876 -302.04655907 415.43672672 -303.14326477 415.42392826 C-304.06305744 415.42365857 -304.98285011 415.42338888 -305.93051529 415.42311102 C-308.3719635 414.79751587 -308.3719635 414.79751587 -310.66747147 412.68149847 C-312.73541519 409.18255943 -312.87217102 407.07792363 -312.87253475 403.0273819 C-312.87804892 402.35620305 -312.88356309 401.68502421 -312.88924435 400.99350661 C-312.90286129 398.74001847 -312.88793177 396.48762924 -312.87316895 394.23416138 C-312.87706105 392.60410848 -312.88270077 390.97405897 -312.88993984 389.34401751 C-312.90472557 384.86122525 -312.89449483 380.37878315 -312.88020313 375.89600205 C-312.8691149 371.06293888 -312.88102881 366.2299257 -312.89004517 361.39686584 C-312.90399431 351.92752063 -312.89640909 342.45830858 -312.88136958 332.98896968 C-312.86452872 321.96683754 -312.86771732 310.94473874 -312.87146366 299.92259771 C-312.87734531 280.25929478 -312.86315871 260.59605584 -312.83851624 240.93276978 C-312.81459458 221.8425761 -312.80751159 202.75246793 -312.81800842 183.66226196 C-312.82941199 162.88570261 -312.83135463 142.10918283 -312.81691033 121.33262396 C-312.81538445 119.1181167 -312.81386409 116.90360944 -312.81234932 114.68910217 C-312.81159151 113.59945712 -312.81083369 112.50981206 -312.81005291 111.38714746 C-312.80530575 103.70000213 -312.80716459 96.01287444 -312.81141472 88.32572937 C-312.81633616 78.96058283 -312.81038035 69.59551722 -312.79052042 60.23038924 C-312.78063368 55.45006716 -312.77555819 50.66986842 -312.78341293 45.88953972 C-312.790452 41.51621739 -312.78370684 37.14314434 -312.76580931 32.76985496 C-312.76175326 31.18513931 -312.76278398 29.60040106 -312.76932817 28.01569372 C-312.77744768 25.86604554 -312.76720462 23.71724354 -312.75228024 21.56764984 C-312.75125111 20.37234256 -312.75022198 19.17703528 -312.74916166 17.94550657 C-312.33282975 14.47091648 -311.45617611 12.58218411 -309.3719635 9.79751587 C-307.00552106 8.61429465 -305.6053555 8.67674071 -302.96618652 8.68399048 C-302.0342384 8.68406632 -301.10229027 8.68414217 -300.14210129 8.68422031 C-299.1112151 8.68938128 -298.0803289 8.69454226 -297.01820374 8.69985962 C-295.92819691 8.70127173 -294.83819008 8.70268385 -293.71515274 8.70413876 C-290.03693052 8.70988657 -286.3587625 8.7225863 -282.68055725 8.73501587 C-280.05253194 8.7401662 -277.42450548 8.74475609 -274.79647827 8.74882507 C-270.58815575 8.75547091 -266.37983666 8.76260902 -262.17151928 8.77201176 C-251.70674106 8.79522121 -241.24203904 8.802165 -230.77723694 8.79922485 C-230.01967535 8.79904244 -229.26211376 8.79886002 -228.48159575 8.79867208 C-222.23871598 8.79714039 -215.99583644 8.79496991 -209.75295687 8.7927711 C-204.12384321 8.79086155 -198.49472982 8.78961597 -192.86561584 8.78921509 C-192.06311032 8.78915077 -191.26060479 8.78908645 -190.43378091 8.78902018 C-177.48922975 8.78886488 -164.54488634 8.81741642 -151.60039961 8.85595012 C-138.28179781 8.89483979 -124.96348784 8.89897748 -111.64485455 8.87267494 C-103.44961719 8.85762215 -95.25533944 8.86912246 -87.06022018 8.91631514 C-81.41726194 8.94626441 -75.77491948 8.94226561 -70.1319595 8.91334528 C-66.89164086 8.89770925 -63.65335385 8.90054013 -60.41312599 8.9342823 C-44.12079969 9.09300306 -31.02845418 6.79070266 -15.86347961 0.72767639 C-10.49744376 -1.34155216 -5.40174932 -2.73845607 0 0 Z " fill="#3D4853" transform="translate(377.37196350097656,49.202484130859375)"/>
<path d="M0 0 C69.63 0 139.26 0 211 0 C208.92156416 2.07843584 207.8033765 2.58625425 205.09326172 3.54956055 C203.8736097 3.9880407 203.8736097 3.9880407 202.62931824 4.43537903 C201.73844009 4.74932114 200.84756195 5.06326324 199.9296875 5.38671875 C198.99663284 5.72084274 198.06357819 6.05496674 197.10224915 6.3992157 C195.08276375 7.12207965 193.06242816 7.84257177 191.04135132 8.56097412 C185.70347198 10.4600872 180.37369287 12.38169556 175.04296875 14.30078125 C173.95758316 14.69108521 172.87219757 15.08138916 171.75392151 15.48352051 C161.75831525 19.0802445 151.77412023 22.70649474 141.8147583 26.40249634 C140.06658265 27.04959952 138.31702748 27.69298828 136.56610107 28.33261108 C134.13812323 29.22016044 131.71508474 30.12003596 129.29296875 31.0234375 C128.57748367 31.28211105 127.8619986 31.54078461 127.12483215 31.80729675 C123.57094237 33.14999224 122.16899441 33.74650838 120 37 C119.72108591 43.39077059 121.93516972 49.50960286 124.0625 55.4375 C124.61838467 57.01865481 125.17189245 58.60064791 125.72265625 60.18359375 C125.96765869 60.86993896 126.21266113 61.55628418 126.46508789 62.26342773 C127 64 127 64 127 66 C126.10539062 66.29132813 125.21078125 66.58265625 124.2890625 66.8828125 C104.1465732 73.7115029 90.9051647 85.06836372 81.47265625 104.078125 C77.21828677 114.52923123 76.51539604 125.04588522 76.60888672 136.1652832 C76.62495934 138.43176656 76.6089532 140.69646115 76.58984375 142.96289062 C76.57215245 154.63684922 77.70264167 165.95433658 82.6875 176.6875 C85 181.72861357 85 181.72861357 85 185 C82.8671875 186.40234375 82.8671875 186.40234375 79.875 187.9375 C60.67812461 198.72582666 45.71354676 216.92258574 39 238 C36.20371334 248.37008551 34.84820003 258.33794355 34.796875 269.046875 C34.78832489 270.44731049 34.78832489 270.44731049 34.77960205 271.8760376 C34.77021144 273.83580409 34.76364191 275.79558594 34.75976562 277.75537109 C34.74998318 280.75515689 34.71887378 283.75427855 34.6875 286.75390625 C34.68097606 288.66405846 34.67572321 290.57421553 34.671875 292.484375 C34.6595282 293.37920593 34.6471814 294.27403687 34.63446045 295.19598389 C34.63746155 296.03075256 34.64046265 296.86552124 34.64355469 297.72558594 C34.63990906 298.45646423 34.63626343 299.18734253 34.63250732 299.94036865 C35.14581335 302.81721831 35.87699461 303.95752273 38 306 C40.79897987 306.39854924 43.20806324 306.53591409 46.00927734 306.50120544 C46.8346015 306.50673984 47.65992565 306.51227424 48.51025963 306.51797634 C51.28578859 306.53162894 54.06042546 306.51658896 56.8359375 306.50170898 C58.82163883 306.50549049 60.80733752 306.51098914 62.79302979 306.51808167 C68.19381935 306.5320755 73.59429174 306.52083892 78.99506378 306.50437045 C84.63912728 306.49054941 90.2831718 306.49697666 95.92724609 306.50050354 C105.4066277 306.503208 114.88588285 306.48970979 124.36523438 306.46655273 C135.33466769 306.43994156 146.30388951 306.43819505 157.27334404 306.4499411 C167.81272979 306.46070923 178.35203881 306.45453939 188.89141846 306.44038582 C193.38260709 306.43461764 197.87373973 306.43471522 202.3649292 306.43945122 C207.65086687 306.44421315 212.93657209 306.43415184 218.22246552 306.41249657 C220.16594407 306.40691783 222.10944492 306.40647331 224.05292511 306.41144943 C226.69911816 306.41737656 229.34459434 306.404947 231.99072266 306.38768005 C232.76590933 306.3936901 233.541096 306.39970014 234.33977318 306.40589231 C238.4127462 306.37571573 238.4127462 306.37571573 241.9767704 304.60073471 C243.30790461 302.51831574 243.38046073 301.15711771 243.38818359 298.69067383 C243.40236832 297.38704643 243.40236832 297.38704643 243.4168396 296.05708313 C243.41076691 295.11656601 243.40469421 294.17604889 243.3984375 293.20703125 C243.40130768 292.2282048 243.40417786 291.24937836 243.40713501 290.2408905 C243.40917927 288.16034368 243.40362425 286.07977779 243.39111328 283.99926758 C243.37528818 280.86949425 243.39083235 277.7410571 243.41015625 274.61132812 C243.427434 259.98976002 242.96388784 245.59115675 236.4375 232.1875 C236.13392578 231.52169922 235.83035156 230.85589844 235.51757812 230.16992188 C234.18208055 227.28070818 232.76857653 224.65286479 231 222 C231 221.01 231 220.02 231 219 C237.08169256 216.77223032 243.16503923 214.54902321 249.24951172 212.32885742 C251.31564317 211.57435308 253.38140535 210.81883665 255.44677734 210.06225586 C258.42967824 208.96977381 261.41392464 207.88103824 264.3984375 206.79296875 C265.30927094 206.45847214 266.22010437 206.12397552 267.15853882 205.77934265 C273.04863302 203.63716856 278.97754031 201.73527899 285 200 C286.20307987 203.60923962 286.40565724 206.21386577 286 210 C283.5625 211.875 283.5625 211.875 281 213 C279.17496369 214.82503631 279.8552857 217.70455296 279.84178162 220.1565094 C279.83438713 221.12935631 279.83438713 221.12935631 279.82684326 222.12185669 C279.81137908 224.31764445 279.80308275 226.51340316 279.79467773 228.70922852 C279.78496882 230.30131001 279.77482372 231.89338889 279.76427555 233.48546505 C279.73714268 237.76379981 279.71601022 242.0421449 279.69608307 246.32051849 C279.67651214 250.32954622 279.65158004 254.33853344 279.6270752 258.34753418 C279.55847175 270.08582574 279.49851894 281.82416656 279.4375 293.5625 C279.293125 319.776875 279.14875 345.99125 279 373 C186.93 373 94.86 373 0 373 C0 249.91 0 126.82 0 0 Z " fill="#EEC09A" transform="translate(82,75)"/>
<path d="M0 0 C5.94980303 15.73431117 11.75229153 31.51709711 17.45443726 47.3427124 C19.72688547 53.64805632 22.00457696 59.95149943 24.28515625 66.25390625 C24.51926523 66.90087463 24.75337421 67.54784302 24.99457741 68.2144165 C28.52818582 77.97543082 32.09290979 87.72468554 35.68359375 97.46484375 C36.03207682 98.41015489 36.03207682 98.41015489 36.38759995 99.37456322 C38.82689705 105.98966546 41.27152307 112.60278839 43.71972656 119.21459961 C47.83647985 130.34142081 51.92221775 141.47903255 55.93245888 152.64470291 C56.60105842 154.50505298 57.27245019 156.36439877 57.94389343 158.22372437 C58.34437393 159.3430838 58.74485443 160.46244324 59.1574707 161.61572266 C59.69220757 163.10539047 59.69220757 163.10539047 60.23774719 164.62515259 C61 167 61 167 61 169 C45.70759459 174.86290303 30.31198306 180.40665743 14.875 185.875 C-4.05733101 192.58371496 -4.05733101 192.58371496 -22.9375 199.4375 C-24.05568115 199.84830811 -25.1738623 200.25911621 -26.32592773 200.68237305 C-33.14934265 203.19665977 -39.96516948 205.73102479 -46.77915955 208.27073669 C-51.02220967 209.85138807 -55.26658191 211.42847318 -59.51101685 213.00540161 C-62.64476283 214.17159576 -65.77636994 215.34340941 -68.90795898 216.51538086 C-70.83827769 217.23318241 -72.76869314 217.95072385 -74.69921875 218.66796875 C-75.59461365 219.00487732 -76.49000854 219.34178589 -77.41253662 219.68890381 C-78.23763733 219.99419006 -79.06273804 220.29947632 -79.9128418 220.61401367 C-80.63287888 220.88283859 -81.35291595 221.15166351 -82.09477234 221.42863464 C-84 222 -84 222 -87 222 C-87.87316895 219.53234863 -87.87316895 219.53234863 -88.74633789 217.06469727 C-89.13341919 215.97077667 -89.52050049 214.87685608 -89.91931152 213.74978638 C-90.80669349 211.24195784 -91.69406469 208.7341255 -92.5814209 206.22628784 C-94.84909658 199.8174546 -97.11688852 193.40866259 -99.38514614 187.00003529 C-100.7151687 183.24223625 -102.04510538 179.48440682 -103.375 175.7265625 C-103.64553255 174.96213018 -103.9160651 174.19769787 -104.19479561 173.41010094 C-108.01608369 162.61194885 -111.83314038 151.81230956 -115.64708138 141.01156044 C-117.20203393 136.60860881 -118.75780382 132.2059459 -120.31360531 127.80329418 C-121.5526866 124.2966565 -122.79119149 120.78981748 -124.02835083 117.28250122 C-127.00328263 108.84940833 -129.98888445 100.42026086 -133 92 C-133.32329285 91.0945343 -133.64658569 90.1890686 -133.97967529 89.25616455 C-134.79960955 86.97096342 -135.62929255 84.68968505 -136.46484375 82.41015625 C-136.89273193 81.23718994 -137.32062012 80.06422363 -137.76147461 78.85571289 C-138.92229423 76.17916901 -140.24142226 74.29722777 -142 72 C-142.89135742 69.80175781 -142.89135742 69.80175781 -143.60546875 67.453125 C-143.86650391 66.60878906 -144.12753906 65.76445312 -144.39648438 64.89453125 C-144.65751953 64.02183594 -144.91855469 63.14914063 -145.1875 62.25 C-145.46013672 61.36183594 -145.73277344 60.47367188 -146.01367188 59.55859375 C-146.6829962 57.37448279 -147.34481906 55.18838699 -148 53 C-136.7347058 48.07498692 -125.17022052 43.96080286 -113.625 39.75 C-109.22745377 38.14174692 -104.8305544 36.53172824 -100.43359375 34.921875 C-99.31767349 34.51360474 -98.20175323 34.10533447 -97.05201721 33.68469238 C-86.55784222 29.84346426 -76.07830551 25.96314852 -65.59985352 22.07928467 C-48.94795382 15.90828244 -32.27864912 9.79967534 -15.52441406 3.91113281 C-13.18988675 3.06853553 -10.89057319 2.16254178 -8.5859375 1.2421875 C-5.3154493 0.10927329 -3.37113559 -0.11499905 0 0 Z " fill="#FDFDFD" transform="translate(367,67)"/>
<path d="M0 0 C1.55618448 1.03190843 3.07432503 2.12222325 4.5625 3.25 C18.54371107 13.25415103 34.2921955 17.11267238 51.26953125 14.49609375 C59.4003931 12.63121718 67.58095279 9.68820088 74.72265625 5.34375 C77 4 77 4 79 4 C80.42830852 7.80704999 81.85236055 11.61566157 83.27246094 15.42578125 C83.75631411 16.72211806 84.24133485 18.0180197 84.72753906 19.31347656 C85.42558589 21.17398505 86.11910947 23.03618865 86.8125 24.8984375 C87.44091797 26.57945557 87.44091797 26.57945557 88.08203125 28.29443359 C89 31 89 31 89 33 C95.5568538 34.2980197 99.61573082 33.55216342 105.75 31.0625 C107.22178219 30.48530542 108.69568577 29.91348462 110.171875 29.34765625 C110.8122168 29.08992432 111.45255859 28.83219238 112.11230469 28.56665039 C114 28 114 28 118 28 C119.2721296 30.1768237 120.5162239 32.36401598 121.75 34.5625 C122.27207031 35.44711914 122.27207031 35.44711914 122.8046875 36.34960938 C132.83985203 54.46865645 130 72.45205665 130 93 C71.26 93 12.52 93 -48 93 C-48 38.19266351 -48 38.19266351 -26.41796875 15.34765625 C-7.49370636 -3.02630449 -7.49370636 -3.02630449 0 0 Z " fill="#69A5AE" transform="translate(180,273)"/>
<path d="M0 0 C6.02476077 4.87718729 7.70184664 12.86105552 10 20 C10.85980469 20.02578125 11.71960938 20.0515625 12.60546875 20.078125 C28.4492029 20.83834779 40.47894806 24.96062034 51.58984375 36.38671875 C53 38 53 38 55 41 C56.73017508 40.54548816 58.45909877 40.08621143 60.1875 39.625 C61.15042969 39.36976563 62.11335938 39.11453125 63.10546875 38.8515625 C65.99049332 38.05498036 65.99049332 38.05498036 68.64453125 36.92578125 C71.99054831 35.61068002 74.4385555 35.55481944 78 36 C81 38.0625 81 38.0625 83 41 C83.125 44.5625 83.125 44.5625 82 48 C78.32546619 51.53919187 74.60405018 53.11410721 69.8125 54.75 C68.58144531 55.17796875 67.35039062 55.6059375 66.08203125 56.046875 C63 57 63 57 61 57 C61.05220703 58.45019531 61.05220703 58.45019531 61.10546875 59.9296875 C61.40318087 74.24822263 58.27896183 85.6356725 48.55859375 96.4921875 C46.23732767 98.73782335 43.77187095 100.35007681 41 102 C41.44585973 106.12420255 42.57858513 109.65650319 44.0625 113.5 C46.84596064 121.05218366 46.84596064 121.05218366 46 125 C43.54405875 128.32274404 42.0743356 129.77618008 38 130.625 C33.94630324 129.78047984 32.67582058 128.12949189 30 125 C28.41796875 121.51953125 28.41796875 121.51953125 27.1875 117.8125 C26.76855469 116.58144531 26.34960938 115.35039062 25.91796875 114.08203125 C25 111 25 111 25 109 C24.05640625 109.04640625 23.1128125 109.0928125 22.140625 109.140625 C8.84218944 109.5144766 -1.66039871 106.88721582 -12 98 C-14.86536282 95.15330404 -17.61776265 92.26725849 -20 89 C-20 88.34 -20 87.68 -20 87 C-21.07378906 87.433125 -22.14757812 87.86625 -23.25390625 88.3125 C-24.68986133 88.87561964 -26.12607311 89.43808499 -27.5625 90 C-28.26697266 90.28617187 -28.97144531 90.57234375 -29.69726562 90.8671875 C-34.27870405 92.64064754 -38.00809345 93.44927159 -43 93 C-45.4375 91.5 -45.4375 91.5 -47 89 C-47.60921535 86.19531045 -47.86557371 83.75263191 -47 81 C-43.39303072 77.40653996 -39.58321708 75.87878012 -34.8125 74.25 C-33.58144531 73.82203125 -32.35039062 73.3940625 -31.08203125 72.953125 C-28 72 -28 72 -26 72 C-26.495 71.01 -26.495 71.01 -27 70 C-28.07332723 56.95494596 -24.61702223 46.60266192 -17 36 C-14.17624014 33.07918784 -11.17727081 30.52369779 -8 28 C-7.34 27.34 -6.68 26.68 -6 26 C-6.54140625 24.62328125 -6.54140625 24.62328125 -7.09375 23.21875 C-12.02827763 10.16966581 -12.02827763 10.16966581 -11 4 C-8.17674448 -0.51720884 -5.09140226 -0.89322847 0 0 Z " fill="#3E4954" transform="translate(306,113)"/>
<path d="M0 0 C3.50988823 7.54468141 6.32101539 15.26502828 9.0703125 23.11328125 C9.55596938 24.49077489 10.04196957 25.86814752 10.52828979 27.2454071 C11.80661853 30.86829721 13.08067977 34.49267291 14.35369873 38.11743164 C15.86326555 42.41355107 17.37715358 46.7081495 18.89161301 51.00254631 C20.13388122 54.52559114 21.37377054 58.0494314 22.60821533 61.57522583 C25.02761011 68.4757739 27.48939176 75.3560182 30.04199219 82.20849609 C30.52331694 83.51192004 31.004272 84.81548058 31.48483276 86.1191864 C32.38534404 88.55312342 33.29795164 90.98262991 34.22439575 93.40681458 C34.62069183 94.48323715 35.01698792 95.55965973 35.42529297 96.66870117 C35.77913055 97.6063884 36.13296814 98.54407562 36.49752808 99.51017761 C37 102 37 102 36.21170044 104.23554993 C33.70483284 107.88599238 29.76246944 109.8149634 26 112 C25.31421875 112.42023438 24.6284375 112.84046875 23.921875 113.2734375 C14.62189586 117.99033339 1.02086846 117.73636843 -8.93359375 115.1171875 C-20.29823232 111.07464233 -30.86450636 102.86163639 -36.5390625 92.07421875 C-41.18942152 81.37295398 -42.37319829 71.4974205 -42.37060547 59.93603516 C-42.37496433 57.76774614 -42.41134026 55.60152259 -42.44921875 53.43359375 C-42.57662103 37.67739245 -38.28977323 24.55743349 -27.5 12.8125 C-20.42628735 5.98642112 -10.02816261 -0.27103142 0 0 Z " fill="#69A5AE" transform="translate(216,156)"/>
<path d="M0 0 C1.1257695 -0.01272446 2.251539 -0.02544891 3.41142273 -0.03855896 C4.64218536 -0.03203308 5.872948 -0.0255072 7.14100647 -0.01878357 C8.44053757 -0.02739914 9.74006866 -0.03601471 11.07897949 -0.04489136 C14.64108158 -0.06739496 18.20273956 -0.06444351 21.76488566 -0.05556989 C24.73958367 -0.05045968 27.71419824 -0.05775284 30.68888766 -0.06504196 C37.70718113 -0.08204426 44.72525719 -0.07847221 51.74354553 -0.06175232 C58.98168291 -0.04483153 66.21921719 -0.06066361 73.45728868 -0.0929752 C79.67400191 -0.11967496 85.89052744 -0.1269461 92.10729223 -0.11846012 C95.81927312 -0.11353179 99.53089115 -0.11574078 103.24282646 -0.13624763 C107.38244624 -0.15802233 111.52092338 -0.13920212 115.66053772 -0.11643982 C116.88927612 -0.12813202 118.11801453 -0.13982422 119.38398743 -0.15187073 C128.62699488 -0.04823635 128.62699488 -0.04823635 131.75796509 2.83145142 C133.46546936 5.5146637 133.46546936 5.5146637 133.59046936 9.0771637 C132.18278139 13.37843249 131.41147936 14.28444121 127.46546936 16.5146637 C123.26746995 17.12315405 119.09566525 17.07098412 114.86000061 17.04811096 C112.93974564 17.06103432 112.93974564 17.06103432 110.98069763 17.07421875 C107.47650168 17.09669205 103.97275781 17.09377836 100.4685173 17.08489728 C97.54098993 17.07978229 94.61354714 17.08708396 91.68602848 17.09436935 C84.77942555 17.11136135 77.87304361 17.1078092 70.96644592 17.09107971 C63.84473179 17.07415212 56.72363031 17.09000265 49.60198307 17.12230259 C43.4829127 17.14900241 37.36403301 17.15627371 31.24491024 17.14778751 C27.59218685 17.14286016 23.9398322 17.14506314 20.28715515 17.16557503 C16.21469383 17.1873504 12.14339391 17.16852955 8.07093811 17.14576721 C6.86247223 17.15745941 5.65400635 17.16915161 4.40892029 17.18119812 C-3.72895128 17.08845306 -3.72895128 17.08845306 -7.78721619 14.19787598 C-10.08690478 10.66642653 -10.21139767 8.65107335 -9.53453064 4.5146637 C-6.62613196 0.75672208 -4.68866946 0.01345704 0 0 Z " fill="#3D4853" transform="translate(159.53453063964844,404.48533630371094)"/>
<path d="M0 0 C7.69261572 -0.71227923 13.75474407 1.48602976 19.74609375 6.4453125 C21.125 7.8125 21.125 7.8125 23 10 C21.39966508 13.20066984 18.24030101 13.70013124 15.03125 15 C12.83439745 15.82709949 12.83439745 15.82709949 12 18 C11.7194463 21.2263676 11.73210798 23.40118254 13.0625 26.375 C14.999095 28.30208198 14.999095 28.30208198 18.25 28.375 C22.12558689 27.98744131 25.31188366 27.20428289 29 26 C29.6087466 33.54845779 28.25836286 38.6839786 24 45 C22.09452819 46.99025861 20.27376337 48.41365346 18 50 C17.67386719 49.30132812 17.34773438 48.60265625 17.01171875 47.8828125 C16.57472656 46.97273438 16.13773437 46.06265625 15.6875 45.125 C15.25824219 44.22007812 14.82898438 43.31515625 14.38671875 42.3828125 C13.0800612 39.73550524 13.0800612 39.73550524 10 38 C4.95998592 38.23212966 4.95998592 38.23212966 1 41 C0.62559572 46.52246315 1.25698877 50.7709663 3 56 C-4.6363197 56.6640278 -11.54937197 54.20752945 -17.5625 49.4375 C-20 47 -20 47 -21 44 C-19.95199219 43.60167969 -19.95199219 43.60167969 -18.8828125 43.1953125 C-17.97273438 42.84210938 -17.06265625 42.48890625 -16.125 42.125 C-15.22007812 41.77695313 -14.31515625 41.42890625 -13.3828125 41.0703125 C-10.87782993 40.11469105 -10.87782993 40.11469105 -9 38 C-8.35773052 32.63139234 -8.35773052 32.63139234 -10.4375 27.9375 C-15.68497603 26.0176917 -21.68231253 27.79923186 -27 29 C-27.67470985 21.07215921 -24.89247249 15.02487471 -19.875 8.9375 C-18.3671875 7.21484375 -18.3671875 7.21484375 -17 6 C-16.34 6 -15.68 6 -15 6 C-14.74605469 6.69867188 -14.49210937 7.39734375 -14.23046875 8.1171875 C-13.88628906 9.02726563 -13.54210937 9.93734375 -13.1875 10.875 C-12.85105469 11.77992188 -12.51460938 12.68484375 -12.16796875 13.6171875 C-11.10350976 16.29425849 -11.10350976 16.29425849 -8 18 C-4.35366038 17.86977358 -1.91558141 17.71529798 1 15.4375 C2.47170315 11.85022356 1.73638129 8.68190646 1 5 C0.814375 4.01 0.62875 3.02 0.4375 2 C0.2209375 1.01 0.2209375 1.01 0 0 Z " fill="#FAFAFA" transform="translate(322,150)"/>
</svg>
